<svg height="1.2rem" viewBox="-19 0 512 512" width="1.2rem" fill="white" xmlns="http://www.w3.org/2000/svg"><path d="m469.113281 124.40625-120.019531-120.011719c-2.816406-2.816406-6.628906-4.394531-10.609375-4.394531h-264.984375c-8.285156 0-15 6.714844-15 15v186.089844h-43.5c-8.285156 0-15 6.71875-15 15v183.023437c0 8.285157 6.714844 15 15 15h43.5v82.886719c0 8.285156 6.714844 15 15 15h385.007812c8.285157 0 15-6.714844 15-15v-361.984375c0-3.980469-1.582031-7.796875-4.394531-10.609375zm-115.628906-73.195312 68.800781 68.796874h-68.800781zm-323.484375 179.878906h43.488281c.003907 0 .007813.003906.011719.003906s.003906-.003906.007812-.003906h309.996094v153.023437h-353.503906zm58.5 250.910156v-67.886719h310.003906c8.285156 0 15.003906-6.714843 15.003906-15v-183.023437c0-8.28125-6.71875-15-15.003906-15h-310.003906v-171.089844h234.984375v105.007812c0 8.285157 6.714844 15 15 15h105.023437v331.992188zm0 0"/><path d="m83.613281 349.386719v-33.742188h9.238281l19.179688 37.242188c1.542969 2.9375 4.203125 4.058593 7.003906 4.058593 6.4375 0 13.71875-5.878906 13.71875-11.339843 0-.699219-.140625-1.679688-.699218-2.519531l-17.082032-30.941407c9.800782-3.78125 16.941406-12.738281 16.941406-28.421875 0-22.820312-15.261718-29.957031-34.441406-29.957031h-28.980468c-4.058594 0-6.71875 3.078125-6.71875 6.578125v89.042969c0 4.480469 5.457031 6.71875 10.917968 6.71875 5.460938 0 10.921875-2.238281 10.921875-6.71875zm0-76.582031h13.859375c7.839844 0 12.601563 3.222656 12.601563 13.019531 0 9.800781-4.761719 13.023437-12.601563 13.023437h-13.859375zm0 0"/><path d="m157.535156 356.105469c3.5 0 6.300782-1.117188 7.140625-4.058594l4.757813-17.5h29.542968l4.757813 17.5c.839844 2.941406 3.640625 4.058594 7.140625 4.058594 6.019531 0 14-3.777344 14-8.957031 0-.421876-.140625-.980469-.28125-1.542969l-26.179688-85.398438c-1.539062-4.902343-7.839843-7.28125-14.28125-7.28125-6.4375 0-12.738281 2.378907-14.277343 7.28125l-26.042969 85.398438c-.140625.5625-.277344 1.121093-.277344 1.542969 0 5.179687 7.980469 8.957031 14 8.957031zm26.597656-75.878907 10.222657 37.519532h-20.441407zm0 0"/><path d="m255.394531 349.667969c1.539063 4.898437 7.980469 7.277343 14.421875 7.277343 6.300782 0 13.019532-2.378906 14.140625-7.277343l7.277344-33.183594 7.28125 33.183594c1.121094 4.898437 7.839844 7.277343 14.140625 7.277343 6.4375 0 12.738281-2.378906 14.421875-7.277343l27.859375-85.402344c.140625-.417969.277344-1.121094.277344-1.820313 0-4.757812-7.839844-8.679687-14.140625-8.679687-3.359375 0-6.160157 1.121094-7 4.058594l-21.277344 71.824219-11.0625-47.320313c-.839844-3.78125-5.738281-5.742187-10.5-5.742187s-9.660156 1.960937-10.5 5.742187l-11.058594 47.320313-21.28125-71.824219c-.839843-2.9375-3.640625-4.058594-7-4.058594-6.300781 0-14.140625 3.921875-14.140625 8.679687 0 .699219.140625 1.402344.28125 1.820313zm0 0"/></svg>
